# xmcd CD database file
#
# Track frame offsets:
#	150
#	31025
#	46525
#	60052
#	78735
#	94045
#	117597
#	141570
#	163810
#	183530
#	208975
#
# Disc length: 2909 seconds
#
# Revision: 0
# Processed by: cddbd v1.4PL0 Copyright (c) Steve Scherf et al.
# Submitted via: CDex 1.50Beta7
#
DISCID=950b5b0b
DTITLE=Jimmy James - Calling On Love
DYEAR=1999
DGENRE=Blues
TTITLE0=Calling On Love
TTITLE1=Giving The Blues A Bad Name
TTITLE2=What You Want Me To Do
TTITLE3=Hear That Train
TTITLE4=My Point Of View #1
TTITLE5=I'm On Fire
TTITLE6=Drifting
TTITLE7=I'm So Concerned
TTITLE8=Here It Is
TTITLE9=My Point Of View #2
TTITLE10=Friend Of Mine
EXTD=YEAR: 1999
EXTT0=
EXTT1=
EXTT2=
EXTT3=
EXTT4=
EXTT5=
EXTT6=
EXTT7=
EXTT8=
EXTT9=
EXTT10=
PLAYORDER=
